<svg width="654" height="164" viewBox="0 0 654 164" fill="none" xmlns="http://www.w3.org/2000/svg">
<path fill-rule="evenodd" clip-rule="evenodd" d="M0 163.5V123.25L28.723 83L50.8176 58L72.9122 87L95.0068 75L117.101 84L139.196 64L161.291 57L183.385 83L205.48 69L227.574 77L249.669 73L271.764 84L293.858 0L315.953 84L338.047 83L360.142 57L382.237 63L404.331 84L426.426 76L448.52 52L470.615 51L492.709 74L514.804 80L536.899 70L558.993 75L581.088 78L603.182 70L625.277 63L654 113.25V163.5" fill="#E6E7E9" fill-opacity="0.04"/>
</svg>
