<svg width="36" height="36" viewBox="0 0 36 36" fill="none" xmlns="http://www.w3.org/2000/svg">
<g clip-path="url(#clip0)">
<path d="M33.5019 21.9012C31.365 30.4727 22.6835 35.6892 14.1109 33.5517C5.542 31.4148 0.325545 22.7327 2.4634 14.1619C4.59938 5.58947 13.2809 0.372621 21.8508 2.50954C30.4227 4.64645 35.6388 13.3295 33.5017 21.9014L33.5019 21.9012H33.5019Z" fill="#F7931A"/>
<path d="M25.0648 15.7239C25.3833 13.5946 23.7622 12.4501 21.5455 11.6865L22.2646 8.80227L20.5089 8.36479L19.8089 11.1731C19.3473 11.058 18.8733 10.9495 18.4022 10.842L19.1073 8.01512L17.3527 7.57764L16.6332 10.461C16.2512 10.374 15.876 10.288 15.5121 10.1975L15.5141 10.1884L13.0929 9.58379L12.6258 11.459C12.6258 11.459 13.9285 11.7576 13.901 11.776C14.612 11.9534 14.7406 12.4241 14.7192 12.7971L13.9001 16.083C13.949 16.0954 14.0125 16.1134 14.0826 16.1416C14.024 16.127 13.9617 16.1111 13.897 16.0957L12.7489 20.6987C12.662 20.9147 12.4414 21.2388 11.9444 21.1157C11.962 21.1412 10.6683 20.7973 10.6683 20.7973L9.79657 22.807L12.0814 23.3766C12.5064 23.4832 12.923 23.5947 13.3331 23.6996L12.6066 26.6169L14.3603 27.0544L15.0798 24.1681C15.5589 24.2981 16.0238 24.4181 16.479 24.5312L15.7619 27.4039L17.5177 27.8414L18.2442 24.9296C21.2381 25.4962 23.4893 25.2677 24.4368 22.5597C25.2004 20.3795 24.3988 19.1219 22.8237 18.3019C23.971 18.0373 24.8351 17.2828 25.0655 15.7241L25.0649 15.7237L25.0648 15.7239ZM21.0534 21.3489C20.5108 23.5292 16.8399 22.3506 15.6498 22.0551L16.6139 18.1901C17.804 18.4872 21.6205 19.0752 21.0535 21.3489H21.0534ZM21.5964 15.6923C21.1014 17.6754 18.0461 16.6679 17.055 16.4208L17.9291 12.9155C18.9202 13.1626 22.112 13.6237 21.5965 15.6923H21.5964Z" fill="white"/>
</g>
<path d="M18 32C10.268 32 4 25.732 4 18H0C0 27.9411 8.05887 36 18 36V32ZM32 18C32 25.732 25.732 32 18 32V36C27.9411 36 36 27.9411 36 18H32ZM18 4C25.732 4 32 10.268 32 18H36C36 8.05887 27.9411 0 18 0V4ZM18 0C8.05887 0 0 8.05887 0 18H4C4 10.268 10.268 4 18 4V0Z" fill="#E6E7E9" fill-opacity="0.16"/>
<defs>
<clipPath id="clip0">
<path d="M2 18C2 9.16344 9.16344 2 18 2C26.8366 2 34 9.16344 34 18C34 26.8366 26.8366 34 18 34C9.16344 34 2 26.8366 2 18Z" fill="white"/>
</clipPath>
</defs>
</svg>
