<svg width="32" height="32" viewBox="0 0 32 32" fill="none" xmlns="http://www.w3.org/2000/svg">
<path fill-rule="evenodd" clip-rule="evenodd" d="M16.0259 12.9371C18.6916 12.9371 20.8526 10.8051 20.8526 8.17519C20.8526 6.47998 18.847 3.01296 17.4215 0.762792C16.7772 -0.254264 15.2746 -0.254264 14.6303 0.762792C13.2048 3.01296 11.1992 6.47998 11.1992 8.17519C11.1992 10.8051 13.3602 12.9371 16.0259 12.9371Z" fill="#667EEC"/>
<path fill-rule="evenodd" clip-rule="evenodd" d="M13.1131 15.9924C13.1131 13.3624 10.9521 11.2305 8.28642 11.2305C6.56814 11.2305 3.05395 13.2092 0.77317 14.6155C-0.257723 15.2512 -0.257723 16.7336 0.77317 17.3692C3.05395 18.7756 6.56814 20.7543 8.28642 20.7543C10.9521 20.7543 13.1131 18.6223 13.1131 15.9924Z" fill="#667EEC"/>
<path fill-rule="evenodd" clip-rule="evenodd" d="M16.0259 19.0483C13.3602 19.0483 11.1992 21.1803 11.1992 23.8102C11.1992 25.5055 13.2048 28.9726 14.6303 31.2227C15.2746 32.2397 16.7772 32.2397 17.4215 31.2227C18.847 28.9726 20.8526 25.5055 20.8526 23.8102C20.8526 21.1803 18.6916 19.0483 16.0259 19.0483Z" fill="#667EEC"/>
<path fill-rule="evenodd" clip-rule="evenodd" d="M31.1725 14.6155C28.8917 13.2092 25.3775 11.2305 23.6592 11.2305C20.9934 11.2305 18.8325 13.3624 18.8325 15.9924C18.8325 18.6223 20.9934 20.7543 23.6592 20.7543C25.3775 20.7543 28.8917 18.7756 31.1725 17.3692C32.2034 16.7336 32.2034 15.2512 31.1725 14.6155Z" fill="#667EEC"/>
</svg>
