<svg width="18" height="18" viewBox="0 0 18 18" fill="none" xmlns="http://www.w3.org/2000/svg">
<path d="M14.625 12V12.75H15.2106L15.3526 12.1819L14.625 12ZM4.875 12L4.14739 12.1819L4.28942 12.75H4.875V12ZM16.5 4.5L17.2276 4.6819L17.4606 3.75H16.5V4.5ZM1.125 2.25V1.5C0.833987 1.5 0.569243 1.66834 0.445808 1.93188C0.322373 2.19542 0.362532 2.50658 0.548834 2.73014L1.125 2.25ZM2.4375 2.25L3.16511 2.0681C3.08164 1.73422 2.78165 1.5 2.4375 1.5V2.25ZM14.625 11.25H4.875V12.75H14.625V11.25ZM5.60261 11.8181L3.72761 4.3181L2.27239 4.6819L4.14739 12.1819L5.60261 11.8181ZM3 5.25H16.5V3.75H3V5.25ZM15.7724 4.3181L13.8974 11.8181L15.3526 12.1819L17.2276 4.6819L15.7724 4.3181ZM1.125 3H2.4375V1.5H1.125V3ZM1.70989 2.4319L2.27239 4.6819L3.72761 4.3181L3.16511 2.0681L1.70989 2.4319ZM3.57617 4.01986L1.70117 1.76986L0.548834 2.73014L2.42383 4.98014L3.57617 4.01986ZM5.25 14.625C5.25 14.8321 5.08211 15 4.875 15V16.5C5.91053 16.5 6.75 15.6605 6.75 14.625H5.25ZM4.875 15C4.66789 15 4.5 14.8321 4.5 14.625H3C3 15.6605 3.83947 16.5 4.875 16.5V15ZM4.5 14.625C4.5 14.4179 4.66789 14.25 4.875 14.25V12.75C3.83947 12.75 3 13.5895 3 14.625H4.5ZM4.875 14.25C5.08211 14.25 5.25 14.4179 5.25 14.625H6.75C6.75 13.5895 5.91053 12.75 4.875 12.75V14.25ZM15 14.625C15 14.8321 14.8321 15 14.625 15V16.5C15.6605 16.5 16.5 15.6605 16.5 14.625H15ZM14.625 15C14.4179 15 14.25 14.8321 14.25 14.625H12.75C12.75 15.6605 13.5895 16.5 14.625 16.5V15ZM14.25 14.625C14.25 14.4179 14.4179 14.25 14.625 14.25V12.75C13.5895 12.75 12.75 13.5895 12.75 14.625H14.25ZM14.625 14.25C14.8321 14.25 15 14.4179 15 14.625H16.5C16.5 13.5895 15.6605 12.75 14.625 12.75V14.25Z" fill="white"/>
</svg>
