<svg width="32" height="32" viewBox="0 0 32 32" fill="none" xmlns="http://www.w3.org/2000/svg">
<path fill-rule="evenodd" clip-rule="evenodd" d="M26.9585 4.59542C26.8664 4.50706 26.7735 4.42038 26.6797 4.33539L15.6313 19.7939L11.4097 14.354H4.53795L2.60678 16.5754H6.19973L14.778 27.7726C15.0643 28.0446 15.3488 28.1805 15.6313 28.1805C15.9139 28.1805 16.1834 28.0446 16.4398 27.7726L30.0033 8.82336C29.9248 8.66112 29.8437 8.50043 29.76 8.34131C30.9902 10.616 31.6896 13.2256 31.6896 15.9999C31.6896 24.8358 24.5956 32 15.8447 32C7.09381 32 0 24.8366 0 15.9999C0 7.16326 7.09493 0 15.8451 0C20.1745 0 24.0986 1.75351 26.9585 4.59542Z" fill="#048657"/>
<path fill-rule="evenodd" clip-rule="evenodd" d="M2.60675 16.5759L4.53792 14.3546H11.4097L15.6313 19.7945L26.6797 4.33594C27.3377 4.93199 27.9515 5.61215 28.5212 6.37643C29.0925 7.14306 29.5888 7.96277 30.0033 8.82428L16.4398 27.7732C16.1835 28.0451 15.914 28.1811 15.6313 28.1811C15.3486 28.1811 15.0642 28.0451 14.778 27.7732L6.1997 16.5759H2.60675Z" fill="white"/>
</svg>
