<svg width="32" height="32" viewBox="0 0 32 32" fill="none" xmlns="http://www.w3.org/2000/svg">
<path fill-rule="evenodd" clip-rule="evenodd" d="M0 0H32V32H0V0Z" fill="#0886FB"/>
<path fill-rule="evenodd" clip-rule="evenodd" d="M26.5209 16.5765C26.5399 16.3928 26.5013 16.2077 26.4104 16.0469C26.1567 15.595 25.528 15.4075 25.1089 15.6057C25.0164 15.6513 24.934 15.7151 24.8666 15.7932L20.5437 19.6199V24.0345C20.5437 24.0345 16.2865 23.3838 15.3385 23.13C14.1254 22.81 13.2631 22.5784 12.4711 21.8399C12.1953 21.5862 11.4126 20.8585 11.3685 19.8315V19.4124L11.3464 8.13025L16.9379 8.97782C17.3791 9.05481 18.5038 9.30854 19.3862 10.1159C19.6708 10.3833 19.9185 10.6875 20.1226 11.0204C20.4647 11.5607 20.5196 11.8693 20.5303 12.0682V15.6164C20.5496 15.8314 20.6342 16.0353 20.7727 16.2009C20.9142 16.3809 21.1197 16.4994 21.3464 16.5316C21.5667 16.5537 21.7435 16.4647 21.9202 16.3883C22.0262 16.3372 22.1261 16.2743 22.2181 16.2009L26.6186 12.5067V8.70333C26.5744 7.58931 26.0007 6.78459 25.6258 6.25503C25.4162 5.96849 24.3357 4.52374 22.3721 3.85091C22.1954 3.79601 22.0521 3.75183 21.953 3.71701L17.1247 2.8353C16.7541 2.75922 16.3784 2.71132 16.0006 2.69203C15.7804 2.68132 14.8759 2.62508 14.0156 2.7804C12.4048 3.07966 10.2431 4.23586 9.93442 5.94506C9.91567 6.05438 9.90471 6.1649 9.90161 6.27578H9.38343C8.88541 6.45656 8.41127 6.69734 7.97149 6.9928C7.5303 7.29072 6.64792 7.89727 6.01928 9.0682C5.61 9.85185 5.39097 10.7209 5.37992 11.6049V22.3006C5.37807 22.4847 5.38544 22.6688 5.40201 22.8522C5.40201 22.8522 5.46896 23.7567 5.71064 24.5259C5.98647 25.3748 6.83538 26.7761 8.33569 27.6691C8.77688 27.9369 9.76906 28.1652 11.7547 28.6285C12.9705 28.9204 14.2044 29.1302 15.4483 29.2565C16.2316 29.3335 16.6065 29.3335 16.9372 29.3114C17.5766 29.2786 18.4482 29.223 19.4183 28.7597C21.0833 27.9564 21.8445 26.5096 22.0293 26.1347C22.0842 26.0242 22.1284 25.9251 22.1632 25.8589H22.3835C23.4785 25.5227 24.4543 24.8798 25.1953 24.0064C25.4818 23.6757 26.4526 22.4847 26.5517 20.7748C26.5627 20.5801 26.5627 20.385 26.5517 20.1903C26.5189 18.9659 26.5189 17.7748 26.5189 16.5751L26.5209 16.5765ZM12.5039 5.8125C12.8322 5.5286 13.1953 5.28766 13.5844 5.09548C13.9486 4.91874 14.8859 4.47822 15.9558 4.73128C16.0897 4.76409 16.1981 4.79823 16.2644 4.81965L21.2494 5.7576C22.1345 5.87228 22.9528 6.28923 23.5658 6.9379C23.7532 7.13874 24.4924 7.95284 24.5807 9.14385C24.5919 9.2869 24.5919 9.43061 24.5807 9.57366V11.548L22.5616 13.1139V12.1318C22.5461 11.9284 22.5204 11.726 22.4846 11.5252C22.3381 10.7537 22.0176 10.0258 21.5473 9.39692C21.3705 9.14318 20.3563 7.74262 18.5145 7.13607C18.4154 7.10326 18.3378 7.08117 18.2722 7.05908L12.4048 6.03343L12.5039 5.81317V5.8125ZM19.3527 26.2813C18.8453 27.0646 17.6877 27.1858 17.114 27.2407C16.8502 27.2669 16.5848 27.2743 16.32 27.2628L10.2872 26.215L10.1219 26.138C9.69885 26.0541 9.29729 25.8851 8.94157 25.6413C8.56311 25.3796 8.2438 25.0413 8.0043 24.6484C7.78319 24.3034 7.62288 23.9229 7.5303 23.5237C7.45802 23.2055 7.42831 22.879 7.44193 22.5529L7.43122 11.5031V11.3377C7.4754 10.1909 8.33569 9.30854 9.00852 8.77898L9.28435 8.63571C9.29506 12.2087 9.29506 15.7825 9.30644 19.3555C9.30644 19.4546 9.29573 19.5978 9.30644 19.7746C9.38343 21.4175 10.3542 22.5978 10.6521 22.9399C11.8766 24.3733 13.4753 24.8145 14.5124 25.0903C15.1738 25.267 19.508 25.9948 19.508 25.9948C19.4646 26.0944 19.4129 26.1903 19.3534 26.2813H19.3527ZM24.5801 20.5358C24.5118 21.2349 24.2394 21.8984 23.7968 22.4438C23.4862 22.8175 23.1037 23.1251 22.672 23.3483V20.3704C23.3114 19.8409 23.9514 19.312 24.5801 18.7931C24.5908 19.3669 24.5908 19.9513 24.5801 20.5338V20.5358Z" fill="#FFFDFC"/>
</svg>
