<svg width="36" height="36" viewBox="0 0 36 36" fill="none" xmlns="http://www.w3.org/2000/svg">
<ellipse cx="18" cy="18" rx="16" ry="16" fill="#008DE4"/>
<path d="M20.9746 10H13.9853L13.4057 13.3244L19.7144 13.3321C22.822 13.3321 23.7382 14.4914 23.712 16.4108C23.6971 17.3935 23.282 19.0596 23.1025 19.6008C22.6238 21.0404 21.6403 22.6795 17.953 22.6757L11.8201 22.6719L11.2423 26.0001H18.2167C20.6773 26.0001 21.7207 25.7045 22.8314 25.1824C25.2883 24.0116 26.7505 21.5241 27.3376 18.2764C28.2071 13.4396 27.1226 10 20.9746 10Z" fill="white"/>
<path d="M10.969 16.3306C9.13661 16.3306 8.87483 17.5551 8.70281 18.296C8.47469 19.2634 8.3999 19.6588 8.3999 19.6588H15.5575C17.3899 19.6588 17.6517 18.4342 17.8237 17.6933C18.0518 16.726 18.1266 16.3306 18.1266 16.3306H10.969Z" fill="white"/>
<path d="M18 32C10.268 32 4 25.732 4 18H0C0 27.9411 8.05887 36 18 36V32ZM32 18C32 25.732 25.732 32 18 32V36C27.9411 36 36 27.9411 36 18H32ZM18 4C25.732 4 32 10.268 32 18H36C36 8.05887 27.9411 0 18 0V4ZM18 0C8.05887 0 0 8.05887 0 18H4C4 10.268 10.268 4 18 4V0Z" fill="#E6E7E9" fill-opacity="0.16"/>
</svg>
