<svg width="36" height="36" viewBox="0 0 36 36" fill="none" xmlns="http://www.w3.org/2000/svg">
<ellipse cx="18" cy="18" rx="16" ry="16" fill="#008DE4"/>
<path d="M20.9745 10H13.9852L13.4056 13.3244L19.7143 13.3321C22.8219 13.3321 23.7381 14.4914 23.7119 16.4108C23.697 17.3935 23.2819 19.0596 23.1024 19.6008C22.6237 21.0404 21.6402 22.6795 17.9529 22.6757L11.82 22.6719L11.2422 26.0001H18.2166C20.6772 26.0001 21.7206 25.7045 22.8312 25.1824C25.2882 24.0116 26.7504 21.5241 27.3375 18.2764C28.2069 13.4396 27.1224 10 20.9745 10Z" fill="white"/>
<path d="M10.969 16.3304C9.13661 16.3304 8.87483 17.555 8.70281 18.2958C8.47469 19.2632 8.3999 19.6586 8.3999 19.6586H15.5575C17.3899 19.6586 17.6517 18.434 17.8237 17.6932C18.0518 16.7258 18.1266 16.3304 18.1266 16.3304H10.969Z" fill="white"/>
<rect x="1" y="1" width="34" height="34" rx="17" stroke="#E6E7E9" stroke-opacity="0.16" stroke-width="2"/>
</svg>
