<svg width="36" height="36" viewBox="0 0 36 36" fill="none" xmlns="http://www.w3.org/2000/svg">
<path d="M18.0001 32.6397C26.0852 32.6397 32.6395 26.0854 32.6395 18.0003C32.6395 9.91514 26.0852 3.36084 18.0001 3.36084C9.91495 3.36084 3.36066 9.91514 3.36066 18.0003C3.36066 26.0854 9.91495 32.6397 18.0001 32.6397Z" fill="#002352"/>
<path fill-rule="evenodd" clip-rule="evenodd" d="M18 4.72113C10.6663 4.72113 4.72113 10.6663 4.72113 18C4.72113 25.3337 10.6663 31.2789 18 31.2789C25.3337 31.2789 31.2789 25.3337 31.2789 18C31.2789 10.6663 25.3337 4.72113 18 4.72113ZM2 18C2 9.16344 9.16344 2 18 2C26.8366 2 34 9.16344 34 18C34 26.8366 26.8366 34 18 34C9.16344 34 2 26.8366 2 18Z" fill="#0066CC"/>
<path d="M9.79678 14.1985H20.1344C20.1344 14.1985 23.7026 14.1651 21.2349 18.767C21.2349 18.767 19.4341 22.3685 14.9656 22.3019L17.3733 16.1526C17.4023 16.0797 17.4133 16.0009 17.4053 15.9228C17.3973 15.8447 17.3706 15.7697 17.3273 15.7042C17.2841 15.6387 17.2257 15.5846 17.157 15.5466C17.0884 15.5085 17.0116 15.4876 16.9331 15.4857L13.7651 15.4323L9.76343 25.1697C9.76343 25.1697 11.0973 25.3031 11.831 25.2364L11.4308 26.2368H13.3182C13.3706 26.2372 13.4218 26.2214 13.4648 26.1916C13.5077 26.1617 13.5404 26.1193 13.5583 26.0701L13.8985 25.1697L14.6988 25.103L14.232 26.2368H16.0727C16.1405 26.2373 16.2068 26.2171 16.2628 26.179C16.3188 26.1409 16.3618 26.0866 16.3862 26.0234L16.8997 24.7029C16.8997 24.7029 22.5021 23.7691 25.0365 19.2339C25.0365 19.2339 28.4379 13.965 24.4362 12.0976C23.6563 11.74 22.8224 11.5146 21.9685 11.4307L22.4354 10.2768C22.4496 10.2426 22.4551 10.2054 22.4516 10.1685C22.4481 10.1317 22.4356 10.0962 22.4152 10.0653C22.3948 10.0343 22.3671 10.0089 22.3346 9.99112C22.3021 9.97336 22.2657 9.96383 22.2286 9.96338H20.5012L19.9677 11.364H19.2341L19.6476 10.2768C19.6603 10.242 19.6645 10.2047 19.66 10.1679C19.6554 10.1312 19.6421 10.096 19.6213 10.0654C19.6004 10.0347 19.5726 10.0095 19.54 9.99177C19.5075 9.97404 19.4712 9.9643 19.4341 9.96338H17.7001L17.1665 11.364H11.7776C11.6328 11.3635 11.4905 11.4023 11.366 11.4763C11.2415 11.5503 11.1394 11.6567 11.0706 11.7841L9.79678 14.1985Z" fill="white"/>
<path d="M18 32C10.268 32 4 25.732 4 18H0C0 27.9411 8.05887 36 18 36V32ZM32 18C32 25.732 25.732 32 18 32V36C27.9411 36 36 27.9411 36 18H32ZM18 4C25.732 4 32 10.268 32 18H36C36 8.05887 27.9411 0 18 0V4ZM18 0C8.05887 0 0 8.05887 0 18H4C4 10.268 10.268 4 18 4V0Z" fill="#E6E7E9" fill-opacity="0.16"/>
</svg>
