<svg width="80" height="82" viewBox="0 0 80 82" fill="none" xmlns="http://www.w3.org/2000/svg">
<path d="M1.09481 68.9113C4.15973 76.3904 9.15713 77.9472 12.6707 76.3904C19.4658 73.3797 37.1171 70.0159 55.2456 77.9229C79.2558 88.3954 84.3644 72.5951 76.7016 56.6127C69.0388 40.6303 66.4414 24.4677 75.2752 15.5631C84.109 6.6584 72.5491 -7.27171 52.0199 7.22857C38.7532 16.5992 29.017 14.5126 23.7886 11.8636C18.8611 9.36697 13.3811 6.75688 8.24684 8.79483C2.01699 11.2678 -0.437759 16.6293 9.04067 28.6068C22.4724 45.5801 -5.77562 52.1469 1.09481 68.9113Z" fill="#4A4DE6" fill-opacity="0.12"/>
<path d="M13.5742 32.4778H61.2737V69.1615C61.2737 69.2362 61.244 69.3079 61.1912 69.3607C61.1384 69.4135 61.0667 69.4432 60.992 69.4432H13.8559C13.7812 69.4432 13.7096 69.4135 13.6567 69.3607C13.6039 69.3079 13.5742 69.2362 13.5742 69.1615V32.4778Z" fill="#4C5064"/>
<path d="M49.3075 18.1023H27.1282L13.5742 32.4777H61.2737L49.3075 18.1023Z" fill="#38383A"/>
<path d="M18.0921 12.3521L27.1281 18.1023L13.5741 32.4777L3.30591 24.6739L18.0921 12.3521Z" fill="#4C5064"/>
<path d="M58.3434 12.3521L49.3074 18.1023L61.2736 32.4777L73.1295 24.6739L58.3434 12.3521Z" fill="#4C5064"/>
<path d="M32.9552 12.646C33.2102 12.5251 33.4086 12.3103 33.5089 12.0465C33.6092 11.7828 33.6037 11.4905 33.4936 11.2306L29.4287 1.64556C29.3711 1.50979 29.2867 1.38707 29.1804 1.28477C29.0742 1.18247 28.9484 1.10271 28.8106 1.05028C28.6727 0.997847 28.5257 0.973835 28.3784 0.979681C28.231 0.985527 28.0863 1.02111 27.9531 1.0843L27.17 1.45564C27.0367 1.51882 26.9176 1.60829 26.8198 1.71868C26.7221 1.82907 26.6476 1.95809 26.601 2.09798C26.5543 2.23788 26.5364 2.38576 26.5484 2.53275C26.5604 2.67973 26.602 2.82277 26.6706 2.95328L31.5186 12.167C31.65 12.4167 31.8729 12.606 32.1406 12.6953C32.4083 12.7845 32.7002 12.7669 32.9552 12.646Z" fill="#3C3F56"/>
<path d="M38.0514 11.717C38.2359 11.7039 38.4083 11.6199 38.5324 11.4827C38.6565 11.3455 38.7228 11.1657 38.7174 10.9807L38.5166 4.15699C38.5138 4.06034 38.4914 3.96525 38.4509 3.87746C38.4103 3.78967 38.3525 3.71098 38.2807 3.64612C38.209 3.58126 38.1249 3.53157 38.0335 3.50004C37.9421 3.46852 37.8453 3.4558 37.7488 3.46265L37.1819 3.50305C37.0854 3.50991 36.9914 3.5362 36.9054 3.58033C36.8194 3.62446 36.7432 3.68552 36.6814 3.75984C36.6196 3.83416 36.5734 3.92021 36.5457 4.01282C36.518 4.10543 36.5093 4.20269 36.5201 4.29874L37.2879 11.0821C37.3086 11.266 37.3997 11.4348 37.542 11.5531C37.6843 11.6714 37.8668 11.7302 38.0514 11.717Z" fill="#3C3F56"/>
<path d="M41.9859 14.2395C42.4936 14.533 43.2062 14.2637 43.6014 13.6289L50.6194 2.35786C51.0387 1.68454 50.9393 0.863883 50.401 0.552602L49.6505 0.118782C49.1121 -0.192555 48.3513 0.130725 47.9769 0.829966L41.7093 12.5348C41.3563 13.194 41.4783 13.946 41.9859 14.2395Z" fill="#3C3F56"/>
</svg>
