<svg width="36" height="36" viewBox="0 0 36 36" fill="none" xmlns="http://www.w3.org/2000/svg">
<path d="M7.33334 19.427C11.0922 21.2757 15.0144 23.2108 18.0438 24.7081L28.6667 19.427C24.8203 24.7188 21.6155 29.1243 18.0438 34C14.4658 29.1351 10.5144 23.767 7.33334 19.427ZM7.7419 17.9674L18.0555 12.8707L28.2348 17.9301L18.0613 23.0324L7.7419 17.9674ZM18.0438 11.2378L7.33334 16.4594L17.9971 2L28.6667 16.4918L18.0438 11.2378Z" fill="#3AB83A"/>
<path d="M18.0437 24.7081L28.6666 19.427C24.8202 24.7188 18.0437 34 18.0437 34V24.7081ZM18.0554 12.8707L28.2347 17.9301L18.0612 23.0324L18.0554 12.8707ZM18.0437 11.2382L17.997 2L28.6666 16.4918L18.0437 11.2382Z" fill="#0B8311"/>
<path d="M7.74216 17.9675L18.0563 18.7513L28.2356 17.9351L18.0615 23.0377L7.74216 17.9675Z" fill="#0B8311"/>
<path d="M18.0554 18.7513L28.2347 17.9351L18.0612 23.0377L18.0554 18.7513Z" fill="#146714"/>
<path d="M18 32C10.268 32 4 25.732 4 18H0C0 27.9411 8.05887 36 18 36V32ZM32 18C32 25.732 25.732 32 18 32V36C27.9411 36 36 27.9411 36 18H32ZM18 4C25.732 4 32 10.268 32 18H36C36 8.05887 27.9411 0 18 0V4ZM18 0C8.05887 0 0 8.05887 0 18H4C4 10.268 10.268 4 18 4V0Z" fill="#E6E7E9" fill-opacity="0.16"/>
</svg>
