<svg width="36" height="36" viewBox="0 0 36 36" fill="none" xmlns="http://www.w3.org/2000/svg">
<g clip-path="url(#clip0)">
<path d="M17.9959 2L17.7812 2.72924V23.8881L17.9959 24.1023L27.8175 18.2967L17.9959 2Z" fill="#343434"/>
<path d="M18.0089 2L8.18707 18.2967L18.0089 24.1023V13.8324V2Z" fill="#8C8C8C"/>
<path d="M17.996 25.9588L17.875 26.1064V33.6435L17.996 33.9967L27.8235 20.1562L17.996 25.9588Z" fill="#3C3C3B"/>
<path d="M18.0089 33.9967V25.9588L8.18707 20.1562L18.0089 33.9967Z" fill="#8C8C8C"/>
<path d="M17.9998 24.0981L27.8213 18.2925L17.9998 13.8281V24.0981Z" fill="#141414"/>
<path d="M8.18707 18.2925L18.0089 24.0981V13.8281L8.18707 18.2925Z" fill="#393939"/>
</g>
<path d="M18 32C10.268 32 4 25.732 4 18H0C0 27.9411 8.05887 36 18 36V32ZM32 18C32 25.732 25.732 32 18 32V36C27.9411 36 36 27.9411 36 18H32ZM18 4C25.732 4 32 10.268 32 18H36C36 8.05887 27.9411 0 18 0V4ZM18 0C8.05887 0 0 8.05887 0 18H4C4 10.268 10.268 4 18 4V0Z" fill="#E6E7E9" fill-opacity="0.16"/>
<defs>
<clipPath id="clip0">
<path d="M2 18C2 9.16344 9.16344 2 18 2C26.8366 2 34 9.16344 34 18C34 26.8366 26.8366 34 18 34C9.16344 34 2 26.8366 2 18Z" fill="white"/>
</clipPath>
</defs>
</svg>
