<svg width="18" height="18" viewBox="0 0 18 18" fill="none" xmlns="http://www.w3.org/2000/svg">
<path d="M11.25 14.91C11.28 15.135 11.205 15.375 11.0325 15.5325C10.74 15.825 10.2675 15.825 9.97503 15.5325L6.96753 12.525C6.79503 12.3525 6.72003 12.12 6.75003 11.9025V8.0625L3.15753 3.465C2.90253 3.1425 2.96253 2.67 3.28503 2.415C3.42753 2.31 3.58503 2.25 3.75003 2.25H14.25C14.415 2.25 14.5725 2.31 14.715 2.415C15.0375 2.67 15.0975 3.1425 14.8425 3.465L11.25 8.0625V14.91ZM5.28003 3.75L8.25003 7.545V11.685L9.75003 13.185V7.5375L12.72 3.75H5.28003Z" fill="white"/>
</svg>
