<svg width="24" height="24" viewBox="0 0 24 24" fill="none" xmlns="http://www.w3.org/2000/svg">
<path d="M18.6627 18.3163C18.8418 14.1372 16.4298 12.0954 15.1164 11.3073C14.2447 10.782 13.5283 10.0297 13.0985 9.11033C11.5582 5.86256 13.7791 3.27152 13.7791 3.27152C15.1283 1.58794 16.8119 0.692416 19.1761 1.20585C20.8477 1.74316 22.4358 2.44764 23.9164 3.31928V3.43868C23.9283 9.07451 21.9462 14.2566 18.6627 18.3163Z" fill="#67AFE2"/>
<path d="M16.0835 21.0267C14.8298 22.1491 13.4686 23.1402 12 23.976C7.30743 21.3014 3.62982 17.0626 1.65967 11.9641C3.48653 12.9073 5.71937 13.7193 7.29549 13.2059C10.4358 12.1909 12.7164 10.5073 15.7492 13.2297C17.4567 14.7581 17.8149 16.7282 17.4089 18.7462C17.2179 19.6297 16.7522 20.4178 16.0835 21.0267Z" fill="#1EBBAD"/>
<path d="M16.0478 0.441972C14.1731 1.17033 11.7254 2.71063 11.5224 5.83899V5.99421C11.4985 6.77033 11.5463 10.6987 7.54626 12.036C7.54626 12.036 4.69253 13.027 2.30447 10.9972C1.32536 10.1614 0.692528 9.00317 0.453722 7.73749C0.191036 6.30466 0.0596924 4.82406 0.0596924 3.31958C3.5582 1.26585 7.64178 0.0957031 11.9881 0.0957031C13.3731 0.0957031 14.7343 0.215106 16.0478 0.441972Z" fill="#F7A800"/>
</svg>
