<svg width="24" height="24" viewBox="0 0 24 24" fill="none" xmlns="http://www.w3.org/2000/svg">
<path d="M12 24C18.6274 24 24 18.6274 24 12C24 5.37258 18.6274 0 12 0C5.37258 0 0 5.37258 0 12C0 18.6274 5.37258 24 12 24Z" fill="#FFE600"/>
<path fill-rule="evenodd" clip-rule="evenodd" d="M2.99475 4.0684C3.58815 3.39514 4.25476 2.79015 4.98225 2.26465L8.32125 14.2031L9.801 7.87465H12.606L14.085 14.2031L15.8378 7.87465H18.6495L18.6758 7.98715L21.7313 19.0226C21.1775 19.7889 20.5356 20.4874 19.8188 21.1039L17.241 11.7964L15.771 17.1049L15.7448 17.2174H12.6053L11.2035 12.0184L9.801 17.2174H6.6615L6.63525 17.1049L2.99475 4.0684Z" fill="white"/>
</svg>
