<svg width="24" height="24" viewBox="0 0 24 24" fill="none" xmlns="http://www.w3.org/2000/svg">
<path d="M12 24C18.6274 24 24 18.6274 24 12C24 5.37258 18.6274 0 12 0C5.37258 0 0 5.37258 0 12C0 18.6274 5.37258 24 12 24Z" fill="#F7931A"/>
<path d="M19.4827 14.8158L19.074 16.453L17.9827 16.1815L18.3907 14.5435L16.7535 14.1355L17.0257 13.0443L18.663 13.4523L19.0717 11.815L20.163 12.0873L19.755 13.7245L21.3923 14.1325L21.12 15.2245L19.4827 14.8158ZM15.4575 10.3203C15.3052 11.3328 14.7532 11.8248 14.0235 12.0003C15.0217 12.5275 15.5272 13.3405 15.0345 14.758C14.4225 16.5183 12.99 16.6743 11.088 16.318L10.6155 18.2095L9.501 17.932L9.96675 16.0645C9.66991 15.9911 9.37389 15.9143 9.07875 15.8343L8.61075 17.7093L7.49775 17.4318L7.97025 15.5358C7.70925 15.469 7.44525 15.3985 7.17525 15.331L5.724 14.9688L6.285 13.6623C6.285 13.6623 7.10625 13.8805 7.095 13.8648C7.4115 13.942 7.5525 13.7313 7.60875 13.591L8.35425 10.6L8.47275 10.6293C8.43489 10.6142 8.39605 10.6017 8.3565 10.5918L8.889 8.45655C8.904 8.2143 8.82375 7.9098 8.3715 7.79655C8.3895 7.7853 7.56225 7.59555 7.56225 7.59555L7.866 6.37755L9.4035 6.76155L9.402 6.7668C9.633 6.82455 9.8715 6.8793 10.1145 6.93405L10.5817 5.06055L11.6962 5.33805L11.238 7.17555C11.5372 7.24305 11.838 7.31205 12.1305 7.38555L12.5857 5.5608L13.701 5.8383L13.2337 7.71255C14.6407 8.20005 15.6675 8.9373 15.4575 10.3203ZM12.8872 13.984C13.2555 12.5065 10.8307 12.139 10.0747 11.95L9.45 14.4603C10.206 14.6478 12.5362 15.4 12.8887 13.9833L12.8872 13.984ZM13.2525 10.312C13.587 8.9673 11.559 8.6793 10.9297 8.52255L10.362 10.8003C10.9912 10.9578 12.9307 11.6005 13.2525 10.312Z" fill="white"/>
</svg>
