<svg width="48" height="48" viewBox="0 0 48 48" fill="none" xmlns="http://www.w3.org/2000/svg">
<g opacity="0.5">
<circle cx="24" cy="24" r="20" fill="white" fill-opacity="0.9"/>
<path d="M30.7583 14H21.6163V26.3331H33.9595V17.1912C33.9595 16.7713 33.8766 16.3555 33.7156 15.9676C33.5546 15.5798 33.3187 15.2276 33.0213 14.9311C32.7239 14.6347 32.3709 14.3998 31.9826 14.24C31.5943 14.0803 31.1782 13.9987 30.7583 14Z" fill="#142533"/>
<path d="M18.7667 14H17.1912C16.3448 14 15.5331 14.3362 14.9347 14.9347C14.3362 15.5331 14 16.3448 14 17.1912V18.7667H18.7667V14Z" fill="#142533"/>
<path d="M14 21.6167H18.7667V26.3834H14V21.6167Z" fill="#142533"/>
<path d="M29.2335 33.9599H30.809C31.2289 33.9599 31.6447 33.8771 32.0326 33.7161C32.4204 33.5551 32.7726 33.3191 33.0691 33.0217C33.3655 32.7243 33.6004 32.3713 33.7602 31.983C33.9199 31.5947 34.0015 31.1786 34.0002 30.7587V29.2334H29.2335V33.9599Z" fill="#142533"/>
<path d="M21.6163 29.2334H26.383V34.0001H21.6163V29.2334Z" fill="#142533"/>
<path d="M14 29.2334V30.8089C14 31.6553 14.3362 32.4669 14.9347 33.0654C15.5331 33.6639 16.3448 34.0001 17.1912 34.0001H18.7667V29.2334H14Z" fill="#142533"/>
</g>
</svg>
