<svg width="36" height="36" viewBox="0 0 36 36" fill="none" xmlns="http://www.w3.org/2000/svg">
<g clip-path="url(#clip0)">
<path d="M17.9998 32.2685C25.88 32.2685 32.2681 25.8804 32.2681 18.0002C32.2681 10.1201 25.88 3.73193 17.9998 3.73193C10.1197 3.73193 3.73157 10.1201 3.73157 18.0002C3.73157 25.8804 10.1197 32.2685 17.9998 32.2685Z" fill="white"/>
<path d="M18 2C14.8355 2 11.7421 2.93838 9.11088 4.69649C6.4797 6.45459 4.42894 8.95345 3.21793 11.8771C2.00693 14.8007 1.69008 18.0177 2.30744 21.1214C2.92481 24.2251 4.44866 27.0761 6.6863 29.3137C8.92394 31.5513 11.7749 33.0752 14.8786 33.6926C17.9823 34.3099 21.1993 33.9931 24.1229 32.7821C27.0466 31.5711 29.5454 29.5203 31.3035 26.8891C33.0616 24.2579 34 21.1645 34 18C34.0061 15.905 33.5995 13.8292 32.8034 11.8913C32.0073 9.9534 30.8373 8.19127 29.3602 6.70553C27.8831 5.21979 26.1278 4.03954 24.1946 3.23216C22.2614 2.42479 20.188 2.0061 18.093 2H18ZM18.2712 18.5424L16.6053 24.1598H25.5157C25.5748 24.1577 25.6336 24.1673 25.6889 24.188C25.7443 24.2087 25.795 24.2401 25.8381 24.2804C25.8813 24.3207 25.9161 24.3691 25.9406 24.4229C25.965 24.4766 25.9786 24.5347 25.9806 24.5937V24.7409L25.2058 27.414C25.1717 27.5405 25.0955 27.6515 24.9899 27.7289C24.8843 27.8064 24.7555 27.8456 24.6247 27.8402H10.9879L13.2736 20.0533L10.7167 20.8281L11.2978 19.046L13.8547 18.2712L17.0702 7.34625C17.1056 7.22054 17.1821 7.1103 17.2874 7.03307C17.3927 6.95584 17.5208 6.91607 17.6513 6.9201H21.0993C21.1583 6.91803 21.2172 6.92761 21.2725 6.9483C21.3278 6.96899 21.3785 7.00038 21.4217 7.04068C21.4648 7.08098 21.4996 7.12939 21.5241 7.18315C21.5486 7.23692 21.5622 7.29497 21.5642 7.35399V7.50121L18.8523 16.7215L21.4092 15.9467L20.8668 17.8063L18.2712 18.5424Z" fill="#345D9D"/>
</g>
<path d="M18 32C10.268 32 4 25.732 4 18H0C0 27.9411 8.05887 36 18 36V32ZM32 18C32 25.732 25.732 32 18 32V36C27.9411 36 36 27.9411 36 18H32ZM18 4C25.732 4 32 10.268 32 18H36C36 8.05887 27.9411 0 18 0V4ZM18 0C8.05887 0 0 8.05887 0 18H4C4 10.268 10.268 4 18 4V0Z" fill="#E6E7E9" fill-opacity="0.16"/>
<defs>
<clipPath id="clip0">
<path d="M2 18C2 9.16344 9.16344 2 18 2C26.8366 2 34 9.16344 34 18C34 26.8366 26.8366 34 18 34C9.16344 34 2 26.8366 2 18Z" fill="white"/>
</clipPath>
</defs>
</svg>
