<svg width="80" height="82" viewBox="0 0 80 82" fill="none" xmlns="http://www.w3.org/2000/svg">
<path d="M1.09481 68.9114C4.15973 76.3905 9.15713 77.9473 12.6707 76.3905C19.4658 73.3798 37.1171 70.016 55.2456 77.923C79.2558 88.3955 84.3644 72.5952 76.7016 56.6128C69.0388 40.6304 66.4414 24.4678 75.2752 15.5632C84.109 6.65849 72.5491 -7.27162 52.0199 7.22866C38.7532 16.5993 29.017 14.5127 23.7886 11.8637C18.8611 9.36706 13.3811 6.75698 8.24684 8.79492C2.01699 11.2679 -0.437759 16.6293 9.04067 28.6069C22.4724 45.5802 -5.77562 52.147 1.09481 68.9114Z" fill="#4A4DE6" fill-opacity="0.12"/>
<path d="M13.5742 32.4775H61.2737V69.1613C61.2737 69.236 61.244 69.3077 61.1912 69.3605C61.1384 69.4133 61.0667 69.443 60.992 69.443H13.8559C13.7812 69.443 13.7096 69.4133 13.6567 69.3605C13.6039 69.3077 13.5742 69.236 13.5742 69.1613V32.4775Z" fill="#4C5064"/>
<path d="M49.3075 18.1021H27.1282L13.5742 32.4775H61.2737L49.3075 18.1021Z" fill="#38383A"/>
<path d="M18.0921 12.3521L27.1281 18.1023L13.5741 32.4777L3.30591 24.6739L18.0921 12.3521Z" fill="#4C5064"/>
<path d="M58.3434 12.3521L49.3074 18.1023L61.2736 32.4777L73.1295 24.6739L58.3434 12.3521Z" fill="#4C5064"/>
<path d="M32.9552 12.6457C33.2102 12.5248 33.4086 12.31 33.5089 12.0462C33.6092 11.7825 33.6037 11.4901 33.4936 11.2303L29.4287 1.64525C29.3711 1.50949 29.2867 1.38676 29.1804 1.28446C29.0742 1.18216 28.9484 1.1024 28.8106 1.04997C28.6727 0.997542 28.5257 0.973529 28.3784 0.979375C28.231 0.985222 28.0863 1.02081 27.9531 1.08399L27.17 1.45533C27.0367 1.51851 26.9176 1.60799 26.8198 1.71837C26.7221 1.82876 26.6476 1.95778 26.601 2.09768C26.5543 2.23758 26.5364 2.38546 26.5484 2.53244C26.5604 2.67942 26.602 2.82247 26.6706 2.95297L31.5186 12.1667C31.65 12.4164 31.8729 12.6057 32.1406 12.695C32.4083 12.7842 32.7002 12.7666 32.9552 12.6457Z" fill="#3C3F56"/>
<path d="M38.0514 11.7171C38.2359 11.704 38.4083 11.62 38.5324 11.4828C38.6565 11.3456 38.7228 11.1658 38.7174 10.9808L38.5166 4.15708C38.5138 4.06043 38.4914 3.96535 38.4509 3.87755C38.4103 3.78976 38.3525 3.71107 38.2807 3.64621C38.209 3.58135 38.1249 3.53166 38.0335 3.50014C37.9421 3.46861 37.8453 3.45589 37.7488 3.46274L37.1819 3.50314C37.0854 3.51 36.9914 3.53629 36.9054 3.58042C36.8194 3.62455 36.7432 3.68561 36.6814 3.75993C36.6196 3.83425 36.5734 3.92031 36.5457 4.01291C36.518 4.10552 36.5093 4.20278 36.5201 4.29884L37.2879 11.0822C37.3086 11.2661 37.3997 11.4349 37.542 11.5532C37.6843 11.6715 37.8668 11.7303 38.0514 11.7171Z" fill="#3C3F56"/>
<path d="M41.9859 14.2395C42.4936 14.5329 43.2062 14.2636 43.6014 13.6288L50.6194 2.35777C51.0387 1.68445 50.9393 0.863791 50.401 0.55251L49.6505 0.11869C49.1121 -0.192647 48.3513 0.130634 47.9769 0.829875L41.7093 12.5347C41.3563 13.1939 41.4783 13.9459 41.9859 14.2395Z" fill="#3C3F56"/>
</svg>
