<svg width="10" height="14" viewBox="0 0 10 14" fill="none" xmlns="http://www.w3.org/2000/svg">
<path d="M2.48749 0.512148L0.394992 2.60465C0.154992 2.83715 0.319992 3.24215 0.657492 3.24215H1.99999V7.74965C1.99999 8.16215 2.33749 8.49965 2.74999 8.49965C3.16249 8.49965 3.49999 8.16215 3.49999 7.74965V3.24215H4.84249C5.17999 3.24215 5.34499 2.83715 5.10499 2.60465L3.01249 0.512148C2.86999 0.369648 2.62999 0.369648 2.48749 0.512148ZM7.99999 10.7571V6.24965C7.99999 5.83715 7.66249 5.49965 7.24999 5.49965C6.83749 5.49965 6.49999 5.83715 6.49999 6.24965V10.7571H5.15749C4.81999 10.7571 4.65499 11.1621 4.89499 11.3946L6.98749 13.4796C7.13749 13.6221 7.36999 13.6221 7.51999 13.4796L9.61249 11.3946C9.85249 11.1621 9.67999 10.7571 9.34999 10.7571H7.99999Z" fill="white" fill-opacity="0.9"/>
</svg>
