<svg width="14" height="10" viewBox="0 0 14 10" fill="none" xmlns="http://www.w3.org/2000/svg">
<path d="M0.512515 7.5126L2.60501 9.6051C2.83751 9.8451 3.24251 9.6801 3.24251 9.3426V8.0001H7.75002C8.16252 8.0001 8.50002 7.6626 8.50002 7.2501C8.50002 6.8376 8.16252 6.5001 7.75002 6.5001H3.24251L3.24251 5.1576C3.24251 4.8201 2.83751 4.6551 2.60501 4.8951L0.512515 6.9876C0.370015 7.1301 0.370015 7.3701 0.512515 7.5126ZM10.7575 2.0001L6.25001 2.0001C5.83751 2.0001 5.50001 2.3376 5.50001 2.7501C5.50001 3.1626 5.83751 3.5001 6.25001 3.5001L10.7575 3.5001V4.8426C10.7575 5.1801 11.1625 5.3451 11.395 5.1051L13.48 3.0126C13.6225 2.8626 13.6225 2.6301 13.48 2.4801L11.395 0.3876C11.1625 0.147599 10.7575 0.3201 10.7575 0.6501V2.0001Z" fill="white" fill-opacity="0.9"/>
</svg>
