<svg width="100" height="26" viewBox="0 0 100 26" fill="none" xmlns="http://www.w3.org/2000/svg">
<path d="M-8.81404e-06 3.56949C-8.81404e-06 3.58283 -0.200009 3.61152 -8.81404e-06 3.63622C0.199991 3.66093 0.599991 3.66549 0.999991 3.693C1.39999 3.72051 1.79999 3.83682 1.99999 3.77377C2.19999 3.71072 1.79999 3.49439 1.99999 3.37776C2.19999 3.26112 2.59999 3.23619 2.99999 3.1906C3.39999 3.14501 3.79999 3.24844 3.99999 3.14981C4.19999 3.05118 3.79999 2.85863 3.99999 2.69745C4.19999 2.53627 4.59999 2.35 4.99999 2.34389C5.39999 2.33777 5.79999 2.64183 5.99999 2.66687C6.19999 2.69191 5.79999 2.51589 5.99999 2.46909C6.19999 2.42228 6.59999 2.43732 6.99999 2.43284C7.39999 2.42836 7.59999 2.46966 7.99999 2.44669C8.39999 2.42373 8.79999 2.60735 8.99999 2.31801C9.19999 2.02866 8.79999 1.12743 8.99999 0.999969C9.19999 0.872505 9.59999 1.54027 9.99999 1.68069C10.4 1.82111 10.8 1.60412 11 1.70208C11.2 1.80003 10.8 2.06665 11 2.17047C11.2 2.27429 11.6 2.17681 12 2.22117C12.4 2.26552 12.8 2.2695 13 2.39225C13.2 2.515 12.8 2.64355 13 2.83491C13.2 3.02628 13.6 3.34087 14 3.34907C14.4 3.35727 14.8 2.89642 15 2.87592C15.2 2.85541 14.8 3.16486 15 3.24656C15.2 3.32825 15.6 3.26728 16 3.2844C16.4 3.30152 16.6 3.20513 17 3.33217C17.4 3.45921 17.8 3.71402 18 3.91959C18.2 4.12517 17.8 4.2932 18 4.36004C18.2 4.42689 18.6 4.23375 19 4.25381C19.4 4.27387 19.8 4.39745 20 4.46034C20.2 4.52323 19.8 4.57993 20 4.56826C20.2 4.55658 20.6 4.54814 21 4.40196C21.4 4.25579 21.8 3.99206 22 3.83738C22.2 3.68269 21.8 3.61634 22 3.62854C22.2 3.64074 22.6 3.86763 23 3.89838C23.4 3.92913 23.6 3.92188 24 3.78228C24.4 3.64268 24.8 2.95394 25 3.20038C25.2 3.44683 24.8 4.58104 25 5.0145C25.2 5.44795 25.6 5.33389 26 5.36765C26.4 5.40141 26.8 5.1594 27 5.1833C27.2 5.20721 26.8 5.3189 27 5.48718C27.2 5.65545 27.6 5.85023 28 6.02467C28.4 6.19912 28.8 6.36035 29 6.35939C29.2 6.35843 28.8 6.00538 29 6.01986C29.2 6.03433 29.6 6.2624 30 6.43177C30.4 6.60114 30.8 6.63339 31 6.86672C31.2 7.10006 30.8 7.73393 31 7.59843C31.2 7.46293 31.6 6.39117 32 6.18923C32.4 5.98728 32.6 6.25063 33 6.58873C33.4 6.92683 33.8 7.42389 34 7.87973C34.2 8.33558 33.8 8.79257 34 8.86793C34.2 8.94329 34.6 8.24553 35 8.25655C35.4 8.26757 35.8 8.53382 36 8.92303C36.2 9.31223 35.8 10.129 36 10.2026C36.2 10.2762 36.6 9.28565 37 9.29098C37.4 9.29631 37.8 10.3349 38 10.2292C38.2 10.1235 37.8 9.02991 38 8.76238C38.2 8.49484 38.6 8.80654 39 8.89153C39.4 8.97653 39.8 9.08117 40 9.18737C40.2 9.29357 39.8 9.0448 40 9.42253C40.2 9.80027 40.6 10.6884 41 11.0761C41.4 11.4637 41.6 11.4019 42 11.3608C42.4 11.3198 42.8 10.5881 43 10.8709C43.2 11.1538 42.8 12.2486 43 12.7749C43.2 13.3012 43.6 13.3528 44 13.5024C44.4 13.652 44.8 13.6556 45 13.523C45.2 13.3903 44.8 13.1404 45 12.8393C45.2 12.5381 45.6 11.7289 46 12.0173C46.4 12.3057 46.8 13.2498 47 14.2814C47.2 15.313 46.8 17.4552 47 17.1753C47.2 16.8954 47.6 13.6732 48 12.8819C48.4 12.0906 48.6 12.8515 49 13.2188C49.4 13.5862 49.8 14.2971 50 14.7188C50.2 15.1405 49.8 14.7647 50 15.3273C50.2 15.89 50.6 17.2317 51 17.5322C51.4 17.8326 51.8 17.0988 52 16.8297C52.2 16.5605 51.8 16.3032 52 16.1864C52.2 16.0696 52.6 16.0551 53 16.2457C53.4 16.4363 53.8 17.0573 54 17.1394C54.2 17.2215 53.8 17.3108 54 16.6562C54.2 16.0016 54.6 14.356 55 13.8665C55.4 13.377 55.8 14.3414 56 14.2086C56.2 14.0757 55.8 13.5708 56 13.2024C56.2 12.834 56.6 12.5395 57 12.3667C57.4 12.1939 57.6 12.1596 58 12.3383C58.4 12.5171 58.8 13.0359 59 13.2604C59.2 13.4849 58.8 13.4601 59 13.4608C59.2 13.4614 59.6 13.199 60 13.2639C60.4 13.3288 60.8 13.7217 61 13.7853C61.2 13.8488 60.8 13.745 61 13.5816C61.2 13.4181 61.6 13.1416 62 12.9681C62.4 12.7946 62.8 12.9001 63 12.7142C63.2 12.5282 62.8 12.368 63 12.0383C63.2 11.7086 63.6 10.9509 64 11.0655C64.4 11.1801 64.8 12.129 65 12.6113C65.2 13.0936 64.8 13.2978 65 13.4769C65.2 13.6561 65.6 13.4815 66 13.507C66.4 13.5325 66.6 13.6984 67 13.6046C67.4 13.5108 67.8 12.8953 68 13.0381C68.2 13.181 67.8 13.7899 68 14.3189C68.2 14.8479 68.6 15.2399 69 15.683C69.4 16.1261 69.8 16.3452 70 16.5345C70.2 16.7238 69.8 16.6205 70 16.6295C70.2 16.6384 70.6 16.5937 71 16.5792C71.4 16.5646 71.8 16.5305 72 16.5568C72.2 16.583 71.8 16.741 72 16.7104C72.2 16.6798 72.6 16.4908 73 16.4037C73.4 16.3166 73.6 16.1532 74 16.275C74.4 16.3967 74.8 16.6268 75 17.0126C75.2 17.3984 74.8 17.9016 75 18.2041C75.2 18.5066 75.6 18.55 76 18.5253C76.4 18.5006 76.8 18.2617 77 18.0808C77.2 17.8999 76.8 17.3808 77 17.6209C77.2 17.8609 77.6 18.6423 78 19.2808C78.4 19.9193 78.8 20.5207 79 20.8131C79.2 21.1056 78.8 20.8126 79 20.7431C79.2 20.6736 79.6 20.2655 80 20.4656C80.4 20.6656 80.8 20.8363 81 21.7432C81.2 22.6501 80.8 24.9295 81 25C81.2 25.0704 81.6 22.9848 82 22.0954C82.4 21.2061 82.6 20.6517 83 20.5533C83.4 20.455 83.8 21.2858 84 21.6039C84.2 21.9221 83.8 22.1274 84 22.1442C84.2 22.1609 84.6 21.9765 85 21.6876C85.4 21.3988 85.8 20.708 86 20.6998C86.2 20.6917 85.8 21.354 86 21.6469C86.2 21.9398 86.6 22.1068 87 22.1643C87.4 22.2218 87.8 21.6586 88 21.9345C88.2 22.2104 87.8 23.1793 88 23.5439C88.2 23.9086 88.6 24.9288 89 23.7578C89.4 22.5867 89.8 19.1282 90 17.6885C90.2 16.2488 89.8 16.6638 90 16.5593C90.2 16.4549 90.6 16.9539 91 17.1662C91.4 17.3786 91.6 17.3823 92 17.6213C92.4 17.8603 92.8 18.0623 93 18.3613C93.2 18.6602 92.8 19.0028 93 19.1162C93.2 19.2295 93.6 19.1628 94 18.928C94.4 18.6932 94.8 18.2243 95 17.942C95.2 17.6597 94.8 17.632 95 17.5165C95.2 17.401 95.6 17.4792 96 17.3646C96.4 17.2499 96.8 17.0953 97 16.9434C97.2 16.7915 96.8 16.8915 97 16.6049C97.2 16.3183 97.6 15.554 98 15.5106C98.4 15.4671 98.8 16.2122 99 16.3877" stroke="#DD425A"/>
</svg>
