<svg width="32" height="32" viewBox="0 0 32 32" fill="none" xmlns="http://www.w3.org/2000/svg">
<path d="M24.3693 14.1403C24.3693 12.1848 24.3967 10.2155 24.3556 8.25999C24.342 7.46683 24.6702 7.02922 25.436 6.85144C27.118 6.45486 28.7864 6.03093 30.4548 5.62067C31.2616 5.42922 31.9044 5.85315 31.9044 6.68734C31.9317 10.8173 31.918 14.9335 31.9044 19.0634C31.9044 19.6651 31.5351 20.0207 30.9608 20.1574C29.265 20.5814 27.5693 21.019 25.8736 21.4155C24.9027 21.648 24.3556 21.1694 24.3556 20.1574C24.3693 18.1472 24.3693 16.1506 24.3693 14.1403ZM12.0616 14.113C12.0616 12.1574 12.0753 10.2019 12.0616 8.24631C12.048 7.49418 12.3625 7.05657 13.1009 6.87879C14.7967 6.46853 16.4924 6.0446 18.1881 5.62067C18.9676 5.42922 19.6103 5.8805 19.6377 6.71469C19.665 7.91811 19.624 9.12153 19.6514 10.3386C19.665 10.7352 19.4189 10.7762 19.1591 10.8446C17.6821 11.2549 17.1762 11.8839 17.1625 13.4155C17.1488 15.6036 17.1488 17.7916 17.1762 19.966C17.1762 20.4036 17.0668 20.595 16.6155 20.6908C15.6445 20.8822 14.6873 21.1694 13.7163 21.4019C12.6633 21.648 12.089 21.1967 12.089 20.1301C12.0616 18.1198 12.0616 16.1096 12.0616 14.113ZM0.0821443 14.1814C0.0821443 12.1984 0.0958195 10.2155 0.068469 8.23264C0.0547938 7.43947 0.4377 7.01554 1.18984 6.83777C2.84454 6.44118 4.49924 6.0446 6.15394 5.63435C7.01548 5.42922 7.65821 5.86683 7.69924 6.75571C7.74026 7.91811 7.69924 9.0805 7.71291 10.2429C7.72659 10.6942 7.39838 10.6805 7.12488 10.7489C5.2924 11.2275 4.86847 11.7472 4.86847 13.6617C4.86847 15.7814 4.85479 17.901 4.88214 20.0207C4.88214 20.4856 4.71804 20.6634 4.30779 20.7455C3.4189 20.9506 2.55736 21.1967 1.66847 21.4019C0.670178 21.6343 0.0821443 21.1557 0.0821443 20.1164V14.1814Z" fill="#8036FD"/>
<path d="M18.2018 19.1044C18.2018 17.0942 18.2155 15.0976 18.2018 13.0873C18.2018 12.4036 18.53 12.0344 19.1727 11.8703C20.3215 11.5831 21.4838 11.3369 22.6189 11.0087C23.1932 10.8446 23.33 11.0224 23.3163 11.5831C23.3026 14.3455 23.3026 17.0942 23.3026 19.8566C23.3026 21.5386 23.7813 22.154 25.395 22.5232C25.518 22.5506 25.6685 22.6053 25.7232 22.701C26.1881 23.5626 25.5864 24.9027 24.6428 25.1489C23.0565 25.5591 21.4702 25.9694 19.8838 26.3386C18.7078 26.6121 18.2155 26.1882 18.2155 24.9711C18.2018 23.0156 18.2018 21.06 18.2018 19.1044ZM5.90778 19.1044C5.90778 17.2173 5.9488 15.3164 5.8941 13.4292C5.86675 12.472 6.27701 11.9933 7.1659 11.8019C8.16419 11.5694 9.1488 11.3232 10.1471 11.0497C10.7625 10.8856 11.036 11.0087 11.0223 11.7335C10.9813 14.5096 11.0086 17.2993 11.0086 20.0754C11.0086 21.525 11.6103 22.2497 13.0462 22.5096C13.3061 22.5506 13.4975 22.619 13.4702 22.9198C13.4018 23.6583 13.7984 24.6703 12.8274 24.9574C10.9403 25.5318 9.01205 25.9968 7.07017 26.3797C6.19496 26.5438 5.90778 25.8326 5.90778 25.0668V19.1044Z" fill="#09FAD9"/>
</svg>
