<svg width="36" height="36" viewBox="0 0 36 36" fill="none" xmlns="http://www.w3.org/2000/svg">
<path d="M18.1671 31.4097C10.8762 31.4097 4.92456 25.4522 4.92456 18.1673C4.92456 10.8764 10.8822 4.9248 18.1671 4.9248C25.4579 4.9248 31.4094 10.8824 31.4094 18.1673C31.4094 25.4582 25.4579 31.4097 18.1671 31.4097Z" fill="url(#paint0_linear)"/>
<path d="M18 34C9.2 34 2 26.8 2 18C2 9.2 9.2 2 18 2C26.8 2 34 9.2 34 18C34 26.8 26.8 34 18 34ZM18 5.55763C11.1576 5.55763 5.55763 11.1576 5.55763 18C5.55763 24.8424 11.1576 30.4424 18 30.4424C24.8424 30.4424 30.4424 24.8424 30.4424 18C30.4424 11.1576 24.8424 5.55763 18 5.55763Z" fill="black"/>
<path d="M17.6296 22.3344H24.563V25.8012H20.4721V28.7345H16.9145V25.8921H12.6478C12.6478 24.7345 12.4721 23.583 12.7387 22.5163C12.8296 21.983 13.4478 21.4496 13.8962 20.9163C15.2296 19.3163 16.563 17.7163 17.9872 16.1163C18.5205 15.4921 19.0538 14.9587 19.6781 14.2497H13.0115V10.783H16.9205V7.8501H20.3872V10.6917H24.6538C24.6538 11.8492 24.8296 13.0008 24.563 14.0674C24.4721 14.6008 23.8538 15.1341 23.4053 15.6674C22.0721 17.2674 20.7387 18.8674 19.3145 20.4674C18.781 21.0921 18.2478 21.7102 17.6296 22.3344Z" fill="black"/>
<path d="M18 32C10.268 32 4 25.732 4 18H0C0 27.9411 8.05887 36 18 36V32ZM32 18C32 25.732 25.732 32 18 32V36C27.9411 36 36 27.9411 36 18H32ZM18 4C25.732 4 32 10.268 32 18H36C36 8.05887 27.9411 0 18 0V4ZM18 0C8.05887 0 0 8.05887 0 18H4C4 10.268 10.268 4 18 4V0Z" fill="#E6E7E9" fill-opacity="0.16"/>
<defs>
<linearGradient id="paint0_linear" x1="9.07455" y1="27.248" x2="27.3554" y2="8.96713" gradientUnits="userSpaceOnUse">
<stop stop-color="#CF8724"/>
<stop offset="1" stop-color="#FDCE58"/>
</linearGradient>
</defs>
</svg>
